<?xml version="1.0" encoding="UTF-8" standalone="no"?>
<!-- Generator: Adobe Illustrator 15.0.0, SVG Export Plug-In . SVG Version: 6.00 Build 0)  -->

<svg
   xmlns:dc="http://purl.org/dc/elements/1.1/"
   xmlns:cc="http://creativecommons.org/ns#"
   xmlns:rdf="http://www.w3.org/1999/02/22-rdf-syntax-ns#"
   xmlns:svg="http://www.w3.org/2000/svg"
   xmlns="http://www.w3.org/2000/svg"
   xmlns:sodipodi="http://sodipodi.sourceforge.net/DTD/sodipodi-0.dtd"
   xmlns:inkscape="http://www.inkscape.org/namespaces/inkscape"
   version="1.1"
   id="Layer_1"
   x="0px"
   y="0px"
   width="603.85742"
   height="244.79797"
   viewBox="0 0 603.85742 244.79797"
   enable-background="new 0 0 612 792"
   xml:space="preserve"
   inkscape:version="0.48.1 "
   sodipodi:docname="big-logo.svg"><metadata
   id="metadata71"><rdf:RDF><cc:Work
       rdf:about=""><dc:format>image/svg+xml</dc:format><dc:type
         rdf:resource="http://purl.org/dc/dcmitype/StillImage" /><dc:title /></cc:Work></rdf:RDF></metadata><defs
   id="defs69" /><sodipodi:namedview
   pagecolor="#ffffff"
   bordercolor="#666666"
   borderopacity="1"
   objecttolerance="10"
   gridtolerance="10"
   guidetolerance="10"
   inkscape:pageopacity="0"
   inkscape:pageshadow="2"
   inkscape:window-width="1920"
   inkscape:window-height="1005"
   id="namedview67"
   showgrid="false"
   inkscape:zoom="0.97137901"
   inkscape:cx="518.2103"
   inkscape:cy="-106.34912"
   inkscape:window-x="-9"
   inkscape:window-y="-9"
   inkscape:window-maximized="1"
   inkscape:current-layer="Layer_1"
   fit-margin-top="0"
   fit-margin-left="0"
   fit-margin-right="0"
   fit-margin-bottom="0" />
<g
   id="g3"
   transform="matrix(1.2577549,0,0,1.2577549,-83.421381,-376.79959)">
	<g
   id="g5">
		<g
   id="g7">
			<path
   d="m 344.375,382.871 c -0.443,2.303 -1.152,4.388 -2.123,6.247 -0.97,1.861 -2.194,3.458 -3.669,4.794 -1.479,1.334 -3.187,2.366 -5.128,3.094 -1.94,0.729 -4.084,1.093 -6.431,1.093 -2.629,0 -5.087,-0.446 -7.37,-1.336 -2.286,-0.892 -4.258,-2.229 -5.916,-4.011 -1.658,-1.782 -2.961,-3.98 -3.912,-6.593 -0.952,-2.611 -1.426,-5.659 -1.426,-9.142 0,-3.403 0.434,-6.471 1.305,-9.204 0.869,-2.735 2.111,-5.044 3.73,-6.928 1.617,-1.883 3.59,-3.329 5.916,-4.344 2.325,-1.011 4.923,-1.518 7.794,-1.518 2.509,0 4.782,0.376 6.827,1.132 2.039,0.754 3.801,1.793 5.277,3.118 1.477,1.327 2.648,2.881 3.519,4.662 0.87,1.784 1.404,3.686 1.606,5.709 h -8.431 c -0.567,-2.306 -1.66,-4.097 -3.276,-5.369 -1.619,-1.274 -3.439,-1.91 -5.461,-1.91 -3.518,0 -6.107,1.264 -7.766,3.79 -1.658,2.529 -2.486,5.997 -2.486,10.405 0,4.49 0.818,7.977 2.457,10.466 1.637,2.487 4.094,3.729 7.371,3.729 2.508,0 4.521,-0.677 6.036,-2.032 1.516,-1.354 2.558,-3.307 3.125,-5.854 h 8.432 z"
   id="path9"
   inkscape:connector-curvature="0" />
			<path
   d="m 360.605,397.489 c -2.425,0 -4.584,-0.384 -6.479,-1.154 -1.897,-0.767 -3.501,-1.841 -4.813,-3.22 -1.312,-1.379 -2.312,-3.039 -2.996,-4.983 -0.687,-1.946 -1.029,-4.073 -1.029,-6.384 0,-2.349 0.353,-4.498 1.059,-6.443 0.706,-1.944 1.727,-3.605 3.057,-4.984 1.334,-1.377 2.938,-2.44 4.813,-3.191 1.878,-0.748 4.006,-1.125 6.39,-1.125 2.338,0 4.439,0.377 6.296,1.125 1.856,0.751 3.44,1.804 4.753,3.162 1.311,1.357 2.321,3.009 3.027,4.952 0.706,1.946 1.059,4.115 1.059,6.505 0,2.391 -0.353,4.551 -1.059,6.474 -0.706,1.925 -1.717,3.577 -3.027,4.954 -1.313,1.377 -2.906,2.441 -4.781,3.19 -1.881,0.75 -3.97,1.122 -6.27,1.122 z m 0.03,-6.609 c 4.813,0 7.221,-3.034 7.221,-9.103 0,-6.025 -2.407,-9.039 -7.221,-9.039 -4.814,0 -7.219,3.014 -7.219,9.039 0,6.069 2.405,9.103 7.219,9.103 z"
   id="path11"
   inkscape:connector-curvature="0" />
			<path
   d="m 399.039,396.702 -0.063,-3.64 c -1.82,2.953 -4.592,4.427 -8.311,4.427 -1.902,0 -3.643,-0.362 -5.218,-1.09 -1.576,-0.728 -2.934,-1.778 -4.065,-3.153 -1.133,-1.376 -2.021,-3.055 -2.67,-5.036 -0.646,-1.982 -0.969,-4.226 -0.969,-6.735 0,-2.265 0.271,-4.336 0.816,-6.217 0.547,-1.883 1.347,-3.508 2.397,-4.885 1.052,-1.375 2.337,-2.436 3.854,-3.186 1.516,-0.748 3.243,-1.123 5.186,-1.123 3.682,0 6.634,1.558 8.857,4.674 v -14.805 h 7.765 v 40.769 h -7.579 z m -6.554,-5.642 c 1.899,0 3.487,-0.788 4.761,-2.366 1.275,-1.576 1.914,-3.639 1.914,-6.188 0,-6.469 -2.207,-9.705 -6.614,-9.705 -4.53,0 -6.794,3.073 -6.794,9.22 0,2.67 0.627,4.845 1.881,6.522 1.252,1.68 2.871,2.517 4.852,2.517 z"
   id="path13"
   inkscape:connector-curvature="0" />
			<path
   d="m 416.992,383.841 c 0.123,2.267 0.78,4.065 1.973,5.398 1.193,1.335 2.762,2.004 4.702,2.004 1.293,0 2.437,-0.293 3.427,-0.88 0.991,-0.586 1.627,-1.404 1.912,-2.457 h 8.129 c -0.932,3.073 -2.549,5.441 -4.853,7.098 -2.306,1.659 -5.056,2.485 -8.251,2.485 -9.951,0 -14.924,-5.418 -14.924,-16.258 0,-2.304 0.324,-4.387 0.969,-6.248 0.647,-1.858 1.588,-3.458 2.82,-4.792 1.234,-1.334 2.74,-2.356 4.521,-3.064 1.781,-0.707 3.822,-1.063 6.128,-1.063 4.609,0 8.099,1.478 10.464,4.429 2.367,2.954 3.551,7.403 3.551,13.348 h -20.568 z m 12.439,-4.974 c -0.041,-1.092 -0.234,-2.054 -0.577,-2.883 -0.344,-0.826 -0.798,-1.518 -1.365,-2.063 -0.566,-0.546 -1.213,-0.948 -1.941,-1.212 -0.727,-0.264 -1.477,-0.394 -2.244,-0.394 -1.576,0 -2.943,0.575 -4.094,1.729 -1.153,1.153 -1.811,2.76 -1.973,4.823 h 12.194 z"
   id="path15"
   inkscape:connector-curvature="0" />
			<path
   d="m 471.896,383.664 h 7.283 v 1.878 c 0,1.575 -0.234,3.083 -0.699,4.517 -0.465,1.436 -1.189,2.712 -2.178,3.823 -0.988,1.112 -2.238,1.991 -3.752,2.639 -1.514,0.646 -3.317,0.969 -5.416,0.969 -2.179,0 -4.035,-0.323 -5.568,-0.969 -1.531,-0.647 -2.793,-1.517 -3.782,-2.608 -0.989,-1.091 -1.704,-2.367 -2.147,-3.822 -0.443,-1.457 -0.665,-2.992 -0.665,-4.611 v -26.693 h 7.825 v 8.069 h 15.498 v 5.58 h -15.498 v 12.256 c 0,1.9 0.352,3.366 1.055,4.396 0.703,1.031 1.857,1.549 3.467,1.549 1.565,0 2.721,-0.505 3.466,-1.518 0.741,-1.01 1.112,-2.445 1.112,-4.307 v -1.148 z"
   id="path17"
   inkscape:connector-curvature="0" />
			<path
   d="M 501.199,396.702 V 378.2 c 0,-2.267 -0.395,-3.813 -1.184,-4.644 -0.789,-0.828 -2.094,-1.241 -3.914,-1.241 -0.971,0 -1.84,0.19 -2.607,0.575 -0.77,0.385 -1.416,0.911 -1.941,1.576 -0.527,0.67 -0.92,1.438 -1.182,2.306 -0.266,0.869 -0.396,1.812 -0.396,2.821 v 17.108 h -7.885 v -40.769 h 7.885 l -0.018,14.805 c 0.283,-0.648 0.715,-1.265 1.301,-1.852 0.586,-0.588 1.262,-1.08 2.029,-1.486 0.766,-0.403 1.611,-0.728 2.541,-0.973 0.928,-0.24 1.898,-0.363 2.906,-0.363 3.066,0 5.559,0.841 7.477,2.521 1.916,1.679 2.875,4.013 2.875,7.005 v 21.112 h -7.887 z"
   id="path19"
   inkscape:connector-curvature="0" />
			<path
   d="m 519.52,383.841 c 0.121,2.267 0.779,4.065 1.973,5.398 1.191,1.335 2.76,2.004 4.701,2.004 1.295,0 2.436,-0.293 3.428,-0.88 0.99,-0.586 1.627,-1.404 1.912,-2.457 h 8.127 c -0.93,3.073 -2.547,5.441 -4.854,7.098 -2.305,1.659 -5.055,2.485 -8.25,2.485 -9.949,0 -14.924,-5.418 -14.924,-16.258 0,-2.304 0.322,-4.387 0.971,-6.248 0.646,-1.858 1.586,-3.458 2.82,-4.792 1.232,-1.334 2.74,-2.356 4.52,-3.064 1.781,-0.707 3.822,-1.063 6.129,-1.063 4.609,0 8.098,1.478 10.465,4.429 2.367,2.954 3.549,7.403 3.549,13.348 H 519.52 z m 12.437,-4.974 c -0.041,-1.092 -0.234,-2.054 -0.576,-2.883 -0.346,-0.826 -0.799,-1.518 -1.365,-2.063 -0.568,-0.546 -1.213,-0.948 -1.941,-1.212 -0.728,-0.264 -1.479,-0.394 -2.246,-0.394 -1.576,0 -2.941,0.575 -4.094,1.729 -1.154,1.153 -1.811,2.76 -1.973,4.823 h 12.195 z"
   id="path21"
   inkscape:connector-curvature="0" />
		</g>
		<g
   id="g23">
			<path
   d="m 265.562,442.129 c -0.829,4.294 -2.146,8.173 -3.953,11.637 -1.808,3.467 -4.086,6.441 -6.836,8.928 -2.75,2.484 -5.932,4.405 -9.545,5.762 -3.616,1.355 -7.609,2.034 -11.978,2.034 -4.897,0 -9.474,-0.829 -13.727,-2.49 -4.256,-1.658 -7.927,-4.149 -11.016,-7.467 -3.089,-3.319 -5.518,-7.412 -7.287,-12.278 -1.771,-4.864 -2.654,-10.54 -2.654,-17.025 0,-6.335 0.807,-12.05 2.431,-17.141 1.617,-5.093 3.934,-9.39 6.947,-12.897 3.011,-3.507 6.682,-6.206 11.016,-8.092 4.33,-1.884 9.167,-2.827 14.517,-2.827 4.671,0 8.906,0.701 12.711,2.106 3.801,1.407 7.078,3.343 9.83,5.811 2.748,2.467 4.931,5.361 6.552,8.682 1.619,3.321 2.617,6.862 2.994,10.63 h -15.703 c -1.055,-4.295 -3.089,-7.627 -6.103,-10 -3.012,-2.372 -6.401,-3.559 -10.167,-3.559 -6.554,0 -11.375,2.354 -14.463,7.061 -3.089,4.709 -4.632,11.168 -4.632,19.379 0,8.359 1.527,14.855 4.578,19.488 3.051,4.632 7.626,6.947 13.728,6.947 4.669,0 8.416,-1.258 11.24,-3.784 2.826,-2.523 4.765,-6.157 5.82,-10.903 h 15.7 z"
   id="path25"
   inkscape:connector-curvature="0"
   style="fill:#8dc63f" />
			<path
   d="m 304.089,467.89 v -34.459 c 0,-4.217 -0.735,-7.101 -2.204,-8.645 -1.469,-1.543 -3.897,-2.315 -7.287,-2.315 -1.81,0 -3.429,0.359 -4.858,1.073 -1.432,0.718 -2.637,1.694 -3.616,2.937 -0.979,1.243 -1.714,2.675 -2.202,4.294 -0.492,1.62 -0.735,3.372 -0.735,5.253 V 467.89 H 268.5 v -75.924 h 14.687 l -0.033,27.567 c 0.527,-1.205 1.332,-2.354 2.422,-3.446 1.09,-1.09 2.35,-2.015 3.776,-2.767 1.428,-0.753 3.006,-1.356 4.736,-1.809 1.728,-0.452 3.533,-0.68 5.411,-0.68 5.712,0 10.354,1.565 13.924,4.689 3.569,3.127 5.354,7.477 5.354,13.051 v 39.317 h -14.688 z"
   id="path27"
   inkscape:connector-curvature="0"
   style="fill:#8dc63f" />
			<path
   d="m 359.555,467.89 c -0.449,-1.43 -0.75,-3.087 -0.898,-4.973 -1.733,1.961 -4.029,3.523 -6.891,4.689 -2.863,1.168 -6.177,1.752 -9.943,1.752 -6.403,0 -11.092,-1.413 -14.066,-4.235 -2.977,-2.826 -4.463,-6.498 -4.463,-11.018 0,-3.99 0.638,-7.174 1.922,-9.546 1.279,-2.374 3.05,-4.238 5.309,-5.593 2.261,-1.356 4.953,-2.353 8.079,-2.995 3.124,-0.638 6.534,-1.224 10.224,-1.751 3.69,-0.524 6.178,-1.223 7.457,-2.089 1.281,-0.866 1.923,-2.279 1.923,-4.238 0,-1.806 -0.849,-3.221 -2.543,-4.236 -1.695,-1.019 -3.974,-1.526 -6.837,-1.526 -3.388,0 -5.817,0.756 -7.287,2.261 -1.466,1.509 -2.391,3.502 -2.768,5.989 h -13.67 c 0.074,-2.861 0.544,-5.499 1.412,-7.91 0.865,-2.41 2.258,-4.481 4.182,-6.214 1.919,-1.732 4.42,-3.067 7.506,-4.012 3.081,-0.94 6.838,-1.413 11.27,-1.413 4.354,0 8.051,0.492 11.092,1.469 3.039,0.98 5.48,2.394 7.32,4.237 1.84,1.847 3.171,4.144 3.996,6.894 0.826,2.749 1.24,5.856 1.24,9.32 v 35.138 h -13.566 z m -1.012,-27.229 c -0.752,0.753 -1.844,1.356 -3.276,1.808 -1.431,0.452 -3.501,0.942 -6.214,1.469 -4.219,0.83 -7.117,1.882 -8.699,3.164 -1.582,1.281 -2.371,3.126 -2.371,5.535 0,4.145 2.371,6.214 7.117,6.214 1.882,0 3.631,-0.32 5.254,-0.959 1.619,-0.641 3.01,-1.507 4.18,-2.599 1.166,-1.093 2.109,-2.373 2.824,-3.843 0.717,-1.469 1.073,-3.031 1.073,-4.688 l 0.112,-6.101 z"
   id="path29"
   inkscape:connector-curvature="0"
   style="fill:#8dc63f" />
			<path
   d="m 414.695,467.89 v -33.669 c 0,-4.295 -0.717,-7.191 -2.146,-8.699 -1.431,-1.508 -3.881,-2.261 -7.343,-2.261 -7.608,0 -11.412,4.259 -11.412,12.767 v 31.862 h -14.688 v -55.589 h 14.012 v 8.111 c 1.725,-3.193 4.014,-5.604 6.867,-7.24 2.854,-1.635 6.534,-2.449 11.038,-2.449 2.629,0 5.071,0.396 7.321,1.189 2.253,0.791 4.188,1.979 5.801,3.564 1.615,1.586 2.891,3.527 3.829,5.828 0.94,2.302 1.41,4.965 1.41,7.981 v 38.604 h -14.689 z"
   id="path31"
   inkscape:connector-curvature="0"
   style="fill:#8dc63f" />
			<path
   d="m 474.123,460.356 c -1.057,2.511 -2.957,4.468 -5.705,5.875 -2.752,1.408 -5.934,2.11 -9.547,2.11 -4.596,0 -8.457,-0.807 -11.582,-2.431 -3.125,-1.618 -5.648,-3.745 -7.57,-6.382 -1.919,-2.637 -3.313,-5.688 -4.18,-9.151 -0.865,-3.464 -1.299,-7.006 -1.299,-10.622 0,-4.293 0.639,-8.227 1.922,-11.807 1.279,-3.575 3.01,-6.625 5.195,-9.148 2.183,-2.526 4.745,-4.482 7.684,-5.877 2.937,-1.395 6.101,-2.092 9.49,-2.092 6.928,0 12.125,2.788 15.592,8.362 v -6.894 h 14.688 v 56.154 c 0,4.217 -0.719,7.926 -2.148,11.129 -1.432,3.201 -3.387,5.875 -5.873,8.021 -2.486,2.147 -5.424,3.786 -8.813,4.915 -3.391,1.131 -7.005,1.694 -10.848,1.694 -3.84,0 -7.42,-0.552 -10.732,-1.651 -3.314,-1.104 -6.158,-2.662 -8.529,-4.674 -2.374,-2.015 -4.238,-4.459 -5.594,-7.329 -1.355,-2.873 -2.033,-6.116 -2.033,-9.733 h 13.558 c 0,3.39 1.116,6.006 3.347,7.853 2.231,1.845 5.2,2.77 8.908,2.77 3.932,0 7.262,-1.072 9.984,-3.214 2.723,-2.144 4.086,-5.06 4.086,-8.744 v -9.134 z m -12.089,-3.651 c 3.614,0 6.608,-1.371 8.981,-4.109 2.375,-2.74 3.559,-6.474 3.559,-11.204 0,-11.86 -4.178,-17.792 -12.54,-17.792 -8.361,0 -12.541,5.631 -12.541,16.889 0,4.957 1.186,8.898 3.558,11.824 2.373,2.928 5.367,4.392 8.983,4.392 z"
   id="path33"
   inkscape:connector-curvature="0"
   style="fill:#8dc63f" />
			<path
   d="m 508.129,443.938 c 0.229,4.219 1.451,7.57 3.674,10.057 2.221,2.482 5.141,3.728 8.756,3.728 2.41,0 4.535,-0.546 6.383,-1.639 1.846,-1.092 3.031,-2.616 3.561,-4.575 h 15.141 c -1.736,5.725 -4.746,10.13 -9.041,13.22 -4.293,3.087 -9.416,4.631 -15.365,4.631 -18.529,0 -27.793,-10.093 -27.793,-30.278 0,-4.294 0.602,-8.174 1.807,-11.637 1.207,-3.465 2.955,-6.441 5.252,-8.928 2.299,-2.484 5.104,-4.387 8.42,-5.705 3.313,-1.316 7.119,-1.979 11.412,-1.979 8.584,0 15.082,2.753 19.488,8.25 4.406,5.5 6.609,13.783 6.609,24.855 h -38.304 z m 23.162,-9.265 c -0.076,-2.034 -0.434,-3.823 -1.072,-5.367 -0.643,-1.543 -1.486,-2.825 -2.541,-3.841 -1.057,-1.016 -2.26,-1.769 -3.617,-2.261 -1.355,-0.489 -2.75,-0.733 -4.18,-0.733 -2.938,0 -5.479,1.073 -7.627,3.221 -2.146,2.148 -3.369,5.142 -3.672,8.981 h 22.709 z"
   id="path35"
   inkscape:connector-curvature="0"
   style="fill:#8dc63f" />
		</g>
	</g>
	<g
   id="g37">
		<path
   d="m 129.158,426.982 1.768,33.5 -0.068,0.295 0.085,0.02 0.005,0.089 c 0.132,0.004 0.266,0.002 0.398,0.005 l 57.567,13.418 2.457,-10.539 -50.102,-11.678 -1.338,-25.359 c -1.869,0.531 -3.833,0.834 -5.872,0.834 -1.689,-0.001 -3.324,-0.215 -4.9,-0.585 z"
   id="path39"
   inkscape:connector-curvature="0" />
		<path
   d="m 160.225,336.239 -32.601,17.18 1.679,31.819 c 1.531,-0.347 3.118,-0.547 4.754,-0.547 2.103,0 4.128,0.316 6.048,0.88 l -1.363,-25.839 27.719,-14.607 c -2.814,-2.34 -4.979,-5.399 -6.236,-8.886 z"
   id="path41"
   inkscape:connector-curvature="0" />
		<path
   d="m 200.738,332.229 c 0.001,-0.011 0.003,-0.021 0.005,-0.033 -0.002,0.011 -0.004,0.022 -0.005,0.033 z"
   id="path43"
   inkscape:connector-curvature="0" />
		<path
   d="m 200.938,328.086 c -0.012,-0.228 -0.05,-0.447 -0.07,-0.672 0.043,0.458 0.059,0.923 0.071,1.39 -0.003,-0.241 0.012,-0.476 -0.001,-0.718 z"
   id="path45"
   inkscape:connector-curvature="0" />
		<path
   d="m 200.942,329.82 c -0.006,0.251 -0.023,0.5 -0.039,0.75 0.018,-0.25 0.032,-0.499 0.039,-0.75 z"
   id="path47"
   inkscape:connector-curvature="0" />
		<g
   id="g49">
			<circle
   cx="181.492"
   cy="326.07001"
   r="10.75"
   id="circle51"
   d="m 192.242,326.07001 c 0,5.93706 -4.81293,10.75 -10.75,10.75 -5.93706,0 -10.75,-4.81294 -10.75,-10.75 0,-5.93706 4.81294,-10.75 10.75,-10.75 5.93707,0 10.75,4.81294 10.75,10.75 z"
   sodipodi:cx="181.492"
   sodipodi:cy="326.07001"
   sodipodi:rx="10.75"
   sodipodi:ry="10.75"
   style="fill:none" />
			<path
   d="m 200.94,328.804 c -0.012,-0.467 -0.028,-0.932 -0.071,-1.39 -0.012,-0.13 -0.025,-0.259 -0.04,-0.389 -0.936,-8.926 -7.554,-16.002 -16.035,-17.791 -1.547,-0.358 -3.152,-0.567 -4.811,-0.567 -11.589,0 -20.984,9.253 -20.984,20.667 0,2.425 0.446,4.743 1.226,6.905 1.257,3.487 3.422,6.546 6.237,8.887 3.653,3.037 8.367,4.875 13.521,4.875 10.588,0 19.322,-7.732 20.754,-17.771 0.001,-0.011 0.003,-0.021 0.005,-0.033 0.076,-0.536 0.128,-1.078 0.161,-1.626 0.015,-0.25 0.033,-0.498 0.039,-0.75 0.004,-0.163 0.025,-0.322 0.025,-0.486 0,-0.18 -0.022,-0.354 -0.027,-0.531 z m -19.448,8.016 c -5.937,0 -10.75,-4.813 -10.75,-10.75 0,-5.937 4.813,-10.75 10.75,-10.75 5.937,0 10.75,4.813 10.75,10.75 0,5.937 -4.813,10.75 -10.75,10.75 z"
   id="path53"
   inkscape:connector-curvature="0"
   style="fill:#8dc63f" />
		</g>
		<path
   d="m 129.304,385.238 c -2.097,0.476 -4.074,1.257 -5.888,2.298 l -23.017,-29.655 c 0.248,-1.32 0.363,-2.686 0.29,-4.09 -0.038,-0.709 -0.131,-1.404 -0.251,-2.088 l 20.057,-22.164 c 1.986,0.771 4.159,1.157 6.426,1.038 8.553,-0.452 15.121,-7.751 14.669,-16.304 -0.452,-8.554 -7.751,-15.121 -16.304,-14.67 -8.554,0.451 -15.121,7.751 -14.67,16.305 0.124,2.35 0.78,4.539 1.821,6.486 L 94.876,341.8 c -3.256,-2.867 -7.588,-4.518 -12.263,-4.271 -9.481,0.5 -16.764,8.591 -16.263,18.074 0.5,9.482 8.594,16.764 18.076,16.264 3.863,-0.204 7.346,-1.684 10.102,-3.987 l 21.152,27.253 c -1.93,3.218 -3.06,6.97 -3.06,10.996 0,10.151 7.064,18.635 16.539,20.854 1.576,0.369 3.211,0.584 4.899,0.584 2.039,0 4.003,-0.303 5.872,-0.834 8.981,-2.556 15.566,-10.803 15.566,-20.604 0,-0.673 -0.04,-1.337 -0.101,-1.994 l 13.06,-11.508 c 2.23,1.312 4.856,2.012 7.635,1.865 7.531,-0.397 13.314,-6.824 12.917,-14.355 -0.397,-7.533 -6.825,-13.314 -14.356,-12.917 -7.532,0.397 -13.314,6.823 -12.917,14.356 0.042,0.797 0.166,1.57 0.336,2.322 l -10.786,9.508 c -2.744,-3.708 -6.642,-6.503 -11.178,-7.835 -1.92,-0.564 -3.946,-0.88 -6.048,-0.88 -1.636,0 -3.223,0.2 -4.754,0.547 z m -4.533,-78.793 c 4.901,0 8.875,3.973 8.875,8.875 0,4.902 -3.974,8.875 -8.875,8.875 -4.901,0 -8.875,-3.973 -8.875,-8.875 0,-4.902 3.974,-8.875 8.875,-8.875 z m -42.529,57.454 c -4.901,0 -8.875,-3.973 -8.875,-8.875 0,-4.902 3.974,-8.875 8.875,-8.875 4.901,0 8.875,3.973 8.875,8.875 0,4.902 -3.974,8.875 -8.875,8.875 z m 93,11.605 c 3.447,0 6.242,2.795 6.242,6.242 0,3.448 -2.795,6.242 -6.242,6.242 -3.447,0 -6.242,-2.794 -6.242,-6.242 0,-3.447 2.794,-6.242 6.242,-6.242 z m -34.346,27.215 c 0,5.938 -4.813,10.75 -10.75,10.75 -5.937,0 -10.75,-4.813 -10.75,-10.75 0,-5.937 4.813,-10.75 10.75,-10.75 5.937,0 10.75,4.812 10.75,10.75 z"
   id="path55"
   inkscape:connector-curvature="0"
   style="fill:#8dc63f" />
		<circle
   cx="181.492"
   cy="326.07001"
   r="10.75"
   id="circle57"
   d="m 192.242,326.07001 c 0,5.93706 -4.81293,10.75 -10.75,10.75 -5.93706,0 -10.75,-4.81294 -10.75,-10.75 0,-5.93706 4.81294,-10.75 10.75,-10.75 5.93707,0 10.75,4.81294 10.75,10.75 z"
   sodipodi:cx="181.492"
   sodipodi:cy="326.07001"
   sodipodi:rx="10.75"
   sodipodi:ry="10.75" />
		<circle
   cx="130.146"
   cy="402.71899"
   r="10.75"
   id="circle59"
   d="m 140.896,402.71899 c 0,5.93707 -4.81294,10.75 -10.75,10.75 -5.93706,0 -10.75,-4.81293 -10.75,-10.75 0,-5.93706 4.81294,-10.75 10.75,-10.75 5.93706,0 10.75,4.81294 10.75,10.75 z"
   sodipodi:cx="130.146"
   sodipodi:cy="402.71899"
   sodipodi:rx="10.75"
   sodipodi:ry="10.75" />
		<circle
   cx="124.771"
   cy="315.32001"
   r="8.875"
   id="circle61"
   d="m 133.646,315.32001 c 0,4.90152 -3.97347,8.875 -8.875,8.875 -4.90152,0 -8.875,-3.97348 -8.875,-8.875 0,-4.90153 3.97348,-8.875 8.875,-8.875 4.90153,0 8.875,3.97347 8.875,8.875 z"
   sodipodi:cx="124.771"
   sodipodi:cy="315.32001"
   sodipodi:rx="8.875"
   sodipodi:ry="8.875" />
		<circle
   cx="82.241997"
   cy="355.02399"
   r="8.875"
   id="circle63"
   d="m 91.116997,355.02399 c 0,4.90152 -3.973473,8.875 -8.875,8.875 -4.901527,0 -8.875,-3.97348 -8.875,-8.875 0,-4.90153 3.973473,-8.875 8.875,-8.875 4.901527,0 8.875,3.97347 8.875,8.875 z"
   sodipodi:cx="82.241997"
   sodipodi:cy="355.02399"
   sodipodi:rx="8.875"
   sodipodi:ry="8.875" />
		<circle
   cx="175.242"
   cy="381.746"
   r="6.2420001"
   id="circle65"
   d="m 181.484,381.746 c 0,3.44736 -2.79463,6.242 -6.242,6.242 -3.44736,0 -6.242,-2.79464 -6.242,-6.242 0,-3.44736 2.79464,-6.242 6.242,-6.242 3.44737,0 6.242,2.79464 6.242,6.242 z"
   sodipodi:cx="175.242"
   sodipodi:cy="381.746"
   sodipodi:rx="6.2420001"
   sodipodi:ry="6.2420001" />
	</g>
</g>
</svg>