<?xml version="1.0" encoding="UTF-8" standalone="no"?>
<!-- Created with Inkscape (http://www.inkscape.org/) -->

<svg
   xmlns:dc="http://purl.org/dc/elements/1.1/"
   xmlns:cc="http://creativecommons.org/ns#"
   xmlns:rdf="http://www.w3.org/1999/02/22-rdf-syntax-ns#"
   xmlns:svg="http://www.w3.org/2000/svg"
   xmlns="http://www.w3.org/2000/svg"
   xmlns:sodipodi="http://sodipodi.sourceforge.net/DTD/sodipodi-0.dtd"
   xmlns:inkscape="http://www.inkscape.org/namespaces/inkscape"
   width="169.34584"
   height="219.76488"
   id="svg3038"
   version="1.1"
   inkscape:version="0.48.1 "
   sodipodi:docname="logo.svg">
  <defs
     id="defs3040" />
  <sodipodi:namedview
     id="base"
     pagecolor="#ffffff"
     bordercolor="#666666"
     borderopacity="1.0"
     inkscape:pageopacity="0.0"
     inkscape:pageshadow="2"
     inkscape:zoom="0.35"
     inkscape:cx="364.67293"
     inkscape:cy="-310.11756"
     inkscape:document-units="px"
     inkscape:current-layer="layer1"
     showgrid="false"
     inkscape:window-width="1920"
     inkscape:window-height="1005"
     inkscape:window-x="-9"
     inkscape:window-y="-9"
     inkscape:window-maximized="1"
     fit-margin-top="0"
     fit-margin-left="0"
     fit-margin-right="0"
     fit-margin-bottom="0" />
  <metadata
     id="metadata3043">
    <rdf:RDF>
      <cc:Work
         rdf:about="">
        <dc:format>image/svg+xml</dc:format>
        <dc:type
           rdf:resource="http://purl.org/dc/dcmitype/StillImage" />
        <dc:title />
      </cc:Work>
    </rdf:RDF>
  </metadata>
  <g
     inkscape:label="Layer 1"
     inkscape:groupmode="layer"
     id="layer1"
     transform="translate(-10.327071,-2.4797378)">
    <g
       transform="matrix(1.2577549,0,0,1.2577549,-73.09431,-374.31985)"
       id="g37">
      <path
         d="m 129.158,426.982 1.768,33.5 -0.068,0.295 0.085,0.02 0.005,0.089 c 0.132,0.004 0.266,0.002 0.398,0.005 l 57.567,13.418 2.457,-10.539 -50.102,-11.678 -1.338,-25.359 c -1.869,0.531 -3.833,0.834 -5.872,0.834 -1.689,-0.001 -3.324,-0.215 -4.9,-0.585 z"
         id="path39"
         inkscape:connector-curvature="0" />
      <path
         d="m 160.225,336.239 -32.601,17.18 1.679,31.819 c 1.531,-0.347 3.118,-0.547 4.754,-0.547 2.103,0 4.128,0.316 6.048,0.88 l -1.363,-25.839 27.719,-14.607 c -2.814,-2.34 -4.979,-5.399 -6.236,-8.886 z"
         id="path41"
         inkscape:connector-curvature="0" />
      <path
         d="m 200.738,332.229 c 0.001,-0.011 0.003,-0.021 0.005,-0.033 -0.002,0.011 -0.004,0.022 -0.005,0.033 z"
         id="path43"
         inkscape:connector-curvature="0" />
      <path
         d="m 200.938,328.086 c -0.012,-0.228 -0.05,-0.447 -0.07,-0.672 0.043,0.458 0.059,0.923 0.071,1.39 -0.003,-0.241 0.012,-0.476 -0.001,-0.718 z"
         id="path45"
         inkscape:connector-curvature="0" />
      <path
         d="m 200.942,329.82 c -0.006,0.251 -0.023,0.5 -0.039,0.75 0.018,-0.25 0.032,-0.499 0.039,-0.75 z"
         id="path47"
         inkscape:connector-curvature="0" />
      <g
         id="g49">
        <circle
           cx="181.492"
           cy="326.07001"
           r="10.75"
           id="circle51"
           d="m 192.242,326.07001 c 0,5.93706 -4.81293,10.75 -10.75,10.75 -5.93706,0 -10.75,-4.81294 -10.75,-10.75 0,-5.93706 4.81294,-10.75 10.75,-10.75 5.93707,0 10.75,4.81294 10.75,10.75 z"
           sodipodi:cx="181.492"
           sodipodi:cy="326.07001"
           sodipodi:rx="10.75"
           sodipodi:ry="10.75"
           style="fill:none" />
        <path
           d="m 200.94,328.804 c -0.012,-0.467 -0.028,-0.932 -0.071,-1.39 -0.012,-0.13 -0.025,-0.259 -0.04,-0.389 -0.936,-8.926 -7.554,-16.002 -16.035,-17.791 -1.547,-0.358 -3.152,-0.567 -4.811,-0.567 -11.589,0 -20.984,9.253 -20.984,20.667 0,2.425 0.446,4.743 1.226,6.905 1.257,3.487 3.422,6.546 6.237,8.887 3.653,3.037 8.367,4.875 13.521,4.875 10.588,0 19.322,-7.732 20.754,-17.771 0.001,-0.011 0.003,-0.021 0.005,-0.033 0.076,-0.536 0.128,-1.078 0.161,-1.626 0.015,-0.25 0.033,-0.498 0.039,-0.75 0.004,-0.163 0.025,-0.322 0.025,-0.486 0,-0.18 -0.022,-0.354 -0.027,-0.531 z m -19.448,8.016 c -5.937,0 -10.75,-4.813 -10.75,-10.75 0,-5.937 4.813,-10.75 10.75,-10.75 5.937,0 10.75,4.813 10.75,10.75 0,5.937 -4.813,10.75 -10.75,10.75 z"
           id="path53"
           inkscape:connector-curvature="0"
           style="fill:#8dc63f" />
      </g>
      <path
         d="m 129.304,385.238 c -2.097,0.476 -4.074,1.257 -5.888,2.298 l -23.017,-29.655 c 0.248,-1.32 0.363,-2.686 0.29,-4.09 -0.038,-0.709 -0.131,-1.404 -0.251,-2.088 l 20.057,-22.164 c 1.986,0.771 4.159,1.157 6.426,1.038 8.553,-0.452 15.121,-7.751 14.669,-16.304 -0.452,-8.554 -7.751,-15.121 -16.304,-14.67 -8.554,0.451 -15.121,7.751 -14.67,16.305 0.124,2.35 0.78,4.539 1.821,6.486 L 94.876,341.8 c -3.256,-2.867 -7.588,-4.518 -12.263,-4.271 -9.481,0.5 -16.764,8.591 -16.263,18.074 0.5,9.482 8.594,16.764 18.076,16.264 3.863,-0.204 7.346,-1.684 10.102,-3.987 l 21.152,27.253 c -1.93,3.218 -3.06,6.97 -3.06,10.996 0,10.151 7.064,18.635 16.539,20.854 1.576,0.369 3.211,0.584 4.899,0.584 2.039,0 4.003,-0.303 5.872,-0.834 8.981,-2.556 15.566,-10.803 15.566,-20.604 0,-0.673 -0.04,-1.337 -0.101,-1.994 l 13.06,-11.508 c 2.23,1.312 4.856,2.012 7.635,1.865 7.531,-0.397 13.314,-6.824 12.917,-14.355 -0.397,-7.533 -6.825,-13.314 -14.356,-12.917 -7.532,0.397 -13.314,6.823 -12.917,14.356 0.042,0.797 0.166,1.57 0.336,2.322 l -10.786,9.508 c -2.744,-3.708 -6.642,-6.503 -11.178,-7.835 -1.92,-0.564 -3.946,-0.88 -6.048,-0.88 -1.636,0 -3.223,0.2 -4.754,0.547 z m -4.533,-78.793 c 4.901,0 8.875,3.973 8.875,8.875 0,4.902 -3.974,8.875 -8.875,8.875 -4.901,0 -8.875,-3.973 -8.875,-8.875 0,-4.902 3.974,-8.875 8.875,-8.875 z m -42.529,57.454 c -4.901,0 -8.875,-3.973 -8.875,-8.875 0,-4.902 3.974,-8.875 8.875,-8.875 4.901,0 8.875,3.973 8.875,8.875 0,4.902 -3.974,8.875 -8.875,8.875 z m 93,11.605 c 3.447,0 6.242,2.795 6.242,6.242 0,3.448 -2.795,6.242 -6.242,6.242 -3.447,0 -6.242,-2.794 -6.242,-6.242 0,-3.447 2.794,-6.242 6.242,-6.242 z m -34.346,27.215 c 0,5.938 -4.813,10.75 -10.75,10.75 -5.937,0 -10.75,-4.813 -10.75,-10.75 0,-5.937 4.813,-10.75 10.75,-10.75 5.937,0 10.75,4.812 10.75,10.75 z"
         id="path55"
         inkscape:connector-curvature="0"
         style="fill:#8dc63f" />
      <circle
         cx="181.492"
         cy="326.07001"
         r="10.75"
         id="circle57"
         d="m 192.242,326.07001 c 0,5.93706 -4.81293,10.75 -10.75,10.75 -5.93706,0 -10.75,-4.81294 -10.75,-10.75 0,-5.93706 4.81294,-10.75 10.75,-10.75 5.93707,0 10.75,4.81294 10.75,10.75 z"
         sodipodi:cx="181.492"
         sodipodi:cy="326.07001"
         sodipodi:rx="10.75"
         sodipodi:ry="10.75" />
      <circle
         cx="130.146"
         cy="402.71899"
         r="10.75"
         id="circle59"
         d="m 140.896,402.71899 c 0,5.93707 -4.81294,10.75 -10.75,10.75 -5.93706,0 -10.75,-4.81293 -10.75,-10.75 0,-5.93706 4.81294,-10.75 10.75,-10.75 5.93706,0 10.75,4.81294 10.75,10.75 z"
         sodipodi:cx="130.146"
         sodipodi:cy="402.71899"
         sodipodi:rx="10.75"
         sodipodi:ry="10.75" />
      <circle
         cx="124.771"
         cy="315.32001"
         r="8.875"
         id="circle61"
         d="m 133.646,315.32001 c 0,4.90152 -3.97347,8.875 -8.875,8.875 -4.90152,0 -8.875,-3.97348 -8.875,-8.875 0,-4.90153 3.97348,-8.875 8.875,-8.875 4.90153,0 8.875,3.97347 8.875,8.875 z"
         sodipodi:cx="124.771"
         sodipodi:cy="315.32001"
         sodipodi:rx="8.875"
         sodipodi:ry="8.875" />
      <circle
         cx="82.241997"
         cy="355.02399"
         r="8.875"
         id="circle63"
         d="m 91.116997,355.02399 c 0,4.90152 -3.973473,8.875 -8.875,8.875 -4.901527,0 -8.875,-3.97348 -8.875,-8.875 0,-4.90153 3.973473,-8.875 8.875,-8.875 4.901527,0 8.875,3.97347 8.875,8.875 z"
         sodipodi:cx="82.241997"
         sodipodi:cy="355.02399"
         sodipodi:rx="8.875"
         sodipodi:ry="8.875" />
      <circle
         cx="175.242"
         cy="381.746"
         r="6.2420001"
         id="circle65"
         d="m 181.484,381.746 c 0,3.44736 -2.79463,6.242 -6.242,6.242 -3.44736,0 -6.242,-2.79464 -6.242,-6.242 0,-3.44736 2.79464,-6.242 6.242,-6.242 3.44737,0 6.242,2.79464 6.242,6.242 z"
         sodipodi:cx="175.242"
         sodipodi:cy="381.746"
         sodipodi:rx="6.2420001"
         sodipodi:ry="6.2420001" />
    </g>
  </g>
</svg>
